<mxfile host="app.diagrams.net" modified="2023-08-03T03:49:30.598Z" agent="Mozilla/5.0 (Windows NT 10.0; Win64; x64) AppleWebKit/537.36 (KHTML, like Gecko) Chrome/115.0.0.0 Safari/537.36" etag="wOb_TbrX45STvnEH4PFY" version="21.6.5" type="device">
  <diagram name="Page-1" id="BWHNkNiEs-IkO5fIKNXb">
    <mxGraphModel dx="1290" dy="605" grid="1" gridSize="10" guides="1" tooltips="1" connect="1" arrows="1" fold="1" page="1" pageScale="1" pageWidth="850" pageHeight="1100" math="0" shadow="0">
      <root>
        <mxCell id="0" />
        <mxCell id="1" parent="0" />
        <mxCell id="UckIdEW40wDfMgWGuQWz-9" value="" style="edgeStyle=orthogonalEdgeStyle;rounded=0;orthogonalLoop=1;jettySize=auto;html=1;" edge="1" parent="1" source="5qmP-6OTH-ESlq7DOyJe-1" target="NqOy1r5sEnn0rG29aLDs-30">
          <mxGeometry relative="1" as="geometry" />
        </mxCell>
        <mxCell id="5qmP-6OTH-ESlq7DOyJe-1" value="START" style="rounded=1;whiteSpace=wrap;html=1;" parent="1" vertex="1">
          <mxGeometry x="247.5" y="40" width="120" height="60" as="geometry" />
        </mxCell>
        <mxCell id="5qmP-6OTH-ESlq7DOyJe-2" value="STOP" style="rounded=1;whiteSpace=wrap;html=1;" parent="1" vertex="1">
          <mxGeometry x="450" y="490" width="120" height="60" as="geometry" />
        </mxCell>
        <mxCell id="5qmP-6OTH-ESlq7DOyJe-3" value="&lt;div&gt;קלוט מספר והדפס אם הוא זוגי או לא&lt;br&gt;&lt;/div&gt;" style="text;html=1;strokeColor=none;fillColor=none;align=center;verticalAlign=middle;whiteSpace=wrap;rounded=0;" parent="1" vertex="1">
          <mxGeometry x="450" y="50" width="215" height="60" as="geometry" />
        </mxCell>
        <mxCell id="5qmP-6OTH-ESlq7DOyJe-23" style="edgeStyle=orthogonalEdgeStyle;rounded=0;orthogonalLoop=1;jettySize=auto;html=1;" parent="1" source="5qmP-6OTH-ESlq7DOyJe-22" target="5qmP-6OTH-ESlq7DOyJe-2" edge="1">
          <mxGeometry relative="1" as="geometry" />
        </mxCell>
        <mxCell id="5qmP-6OTH-ESlq7DOyJe-22" value="&lt;div style=&quot;color: rgb(204, 204, 204); background-color: rgb(31, 31, 31); font-family: Consolas, &amp;quot;Courier New&amp;quot;, monospace; font-size: 14px; line-height: 19px;&quot;&gt;&lt;div style=&quot;line-height: 19px;&quot;&gt;&lt;div style=&quot;line-height: 19px;&quot;&gt;&lt;div style=&quot;line-height: 19px;&quot;&gt;even&lt;/div&gt;&lt;div style=&quot;line-height: 19px;&quot;&gt;(zugi)&lt;/div&gt;&lt;/div&gt;&lt;/div&gt;&lt;/div&gt;" style="shape=document;whiteSpace=wrap;html=1;boundedLbl=1;" parent="1" vertex="1">
          <mxGeometry x="450" y="320" width="120" height="70" as="geometry" />
        </mxCell>
        <mxCell id="UckIdEW40wDfMgWGuQWz-8" value="" style="edgeStyle=orthogonalEdgeStyle;rounded=0;orthogonalLoop=1;jettySize=auto;html=1;" edge="1" parent="1" source="NqOy1r5sEnn0rG29aLDs-30" target="UckIdEW40wDfMgWGuQWz-1">
          <mxGeometry relative="1" as="geometry" />
        </mxCell>
        <mxCell id="NqOy1r5sEnn0rG29aLDs-30" value="number" style="shape=card;whiteSpace=wrap;html=1;" parent="1" vertex="1">
          <mxGeometry x="267.5" y="160" width="80" height="80" as="geometry" />
        </mxCell>
        <mxCell id="UckIdEW40wDfMgWGuQWz-5" value="" style="edgeStyle=orthogonalEdgeStyle;rounded=0;orthogonalLoop=1;jettySize=auto;html=1;" edge="1" parent="1" source="NqOy1r5sEnn0rG29aLDs-31" target="UckIdEW40wDfMgWGuQWz-2">
          <mxGeometry relative="1" as="geometry" />
        </mxCell>
        <mxCell id="NqOy1r5sEnn0rG29aLDs-31" value="&lt;div style=&quot;color: rgb(204, 204, 204); background-color: rgb(31, 31, 31); font-family: Consolas, &amp;quot;Courier New&amp;quot;, monospace; font-size: 14px; line-height: 19px;&quot;&gt;odd&amp;nbsp;&lt;/div&gt;&lt;div style=&quot;color: rgb(204, 204, 204); background-color: rgb(31, 31, 31); font-family: Consolas, &amp;quot;Courier New&amp;quot;, monospace; font-size: 14px; line-height: 19px;&quot;&gt;(i zugi)&lt;/div&gt;" style="shape=document;whiteSpace=wrap;html=1;boundedLbl=1;" parent="1" vertex="1">
          <mxGeometry x="30" y="320" width="140" height="70" as="geometry" />
        </mxCell>
        <mxCell id="UckIdEW40wDfMgWGuQWz-3" value="" style="edgeStyle=orthogonalEdgeStyle;rounded=0;orthogonalLoop=1;jettySize=auto;html=1;" edge="1" parent="1" source="UckIdEW40wDfMgWGuQWz-1" target="5qmP-6OTH-ESlq7DOyJe-22">
          <mxGeometry relative="1" as="geometry" />
        </mxCell>
        <mxCell id="UckIdEW40wDfMgWGuQWz-4" value="" style="edgeStyle=orthogonalEdgeStyle;rounded=0;orthogonalLoop=1;jettySize=auto;html=1;" edge="1" parent="1" source="UckIdEW40wDfMgWGuQWz-1" target="NqOy1r5sEnn0rG29aLDs-31">
          <mxGeometry relative="1" as="geometry" />
        </mxCell>
        <mxCell id="UckIdEW40wDfMgWGuQWz-1" value="&lt;div style=&quot;color: rgb(204, 204, 204); background-color: rgb(31, 31, 31); font-family: Consolas, &amp;quot;Courier New&amp;quot;, monospace; font-size: 14px; line-height: 19px;&quot;&gt;(&lt;span style=&quot;color: #9cdcfe;&quot;&gt;number&lt;/span&gt;&lt;span style=&quot;color: #d4d4d4;&quot;&gt; % &lt;/span&gt;&lt;span style=&quot;color: #b5cea8;&quot;&gt;2&lt;/span&gt;&lt;span style=&quot;color: #d4d4d4;&quot;&gt; === &lt;/span&gt;&lt;span style=&quot;color: #b5cea8;&quot;&gt;0)&lt;/span&gt;&lt;/div&gt;" style="rhombus;whiteSpace=wrap;html=1;" vertex="1" parent="1">
          <mxGeometry x="220" y="280" width="175" height="150" as="geometry" />
        </mxCell>
        <mxCell id="UckIdEW40wDfMgWGuQWz-2" value="STOP" style="rounded=1;whiteSpace=wrap;html=1;" vertex="1" parent="1">
          <mxGeometry x="40" y="490" width="120" height="60" as="geometry" />
        </mxCell>
        <mxCell id="UckIdEW40wDfMgWGuQWz-6" value="&lt;span style=&quot;color: rgb(0, 0, 0); font-family: Helvetica; font-size: 12px; font-style: normal; font-variant-ligatures: normal; font-variant-caps: normal; font-weight: 400; letter-spacing: normal; orphans: 2; text-align: center; text-indent: 0px; text-transform: none; widows: 2; word-spacing: 0px; -webkit-text-stroke-width: 0px; background-color: rgb(251, 251, 251); text-decoration-thickness: initial; text-decoration-style: initial; text-decoration-color: initial; float: none; display: inline !important;&quot;&gt;זוגי&lt;span&gt;&amp;nbsp;&lt;/span&gt;&lt;/span&gt;" style="text;whiteSpace=wrap;html=1;" vertex="1" parent="1">
          <mxGeometry x="405" y="330" width="20" height="30" as="geometry" />
        </mxCell>
        <mxCell id="UckIdEW40wDfMgWGuQWz-7" value="&lt;div style=&quot;text-align: center;&quot;&gt;&lt;span style=&quot;background-color: initial;&quot;&gt;אי זוגי&lt;/span&gt;&lt;/div&gt;" style="text;whiteSpace=wrap;html=1;" vertex="1" parent="1">
          <mxGeometry x="180" y="330" width="50" height="30" as="geometry" />
        </mxCell>
      </root>
    </mxGraphModel>
  </diagram>
</mxfile>
